<?xml version="1.0" standalone="no"?>
<!DOCTYPE svg PUBLIC "-//W3C//DTD SVG 20010904//EN"
 "http://www.w3.org/TR/2001/REC-SVG-20010904/DTD/svg10.dtd">
<svg version="1.0" xmlns="http://www.w3.org/2000/svg"
 width="1024.000000pt" height="873.000000pt" viewBox="0 0 1024.000000 873.000000"
 preserveAspectRatio="xMidYMid meet">

<g transform="translate(0.000000,873.000000) scale(0.100000,-0.100000)"
fill="#000000" stroke="none">
<path d="M270 8720 c-113 -4 -215 -8 -227 -9 -23 -1 -23 -2 -23 -160 l0 -160
288 -3 287 -3 58 -30 c129 -65 205 -199 253 -445 15 -74 18 -220 24 -1160 6
-927 9 -1094 24 -1210 107 -843 390 -1506 820 -1918 300 -287 905 -529 1771
-706 267 -54 825 -146 893 -146 20 0 17 -1529 -3 -1665 -29 -189 -84 -342
-173 -471 -53 -78 -155 -175 -219 -208 -137 -69 -428 -113 -770 -117 l-153 -2
0 -123 0 -124 2010 0 2010 0 0 124 0 123 -152 2 c-344 4 -635 48 -772 117 -96
48 -215 179 -279 308 -51 102 -84 202 -109 331 -20 105 -21 149 -25 906 l-4
795 232 32 c1002 140 1829 386 2265 674 445 294 816 967 959 1742 68 371 75
510 75 1566 0 563 4 948 11 1019 27 294 119 485 267 558 l57 28 288 3 287 3 0
159 0 158 -102 7 c-57 4 -251 8 -433 8 -268 1 -354 -2 -458 -17 -378 -52 -658
-169 -812 -338 -193 -211 -327 -616 -404 -1218 -48 -370 -60 -594 -71 -1305
-15 -974 -46 -1302 -151 -1625 -67 -206 -176 -376 -340 -535 -115 -111 -226
-186 -400 -269 -312 -150 -809 -269 -1199 -288 l-65 -3 -3 2145 c-3 2236 0
2420 38 2579 43 178 159 336 291 399 153 73 368 111 672 119 l217 6 0 178 0
179 -1890 0 -1890 0 0 -180 0 -180 157 0 c288 0 578 -48 727 -121 148 -72 250
-217 304 -428 15 -60 16 -270 19 -2383 l3 -2316 -62 5 c-131 10 -382 44 -505
68 -853 171 -1313 528 -1467 1141 -80 316 -103 606 -116 1469 -5 336 -14 684
-20 775 -63 1009 -240 1630 -531 1860 -198 156 -488 247 -893 280 -136 11
-252 11 -586 0z"/>
</g>
</svg>
